# xmcd
#
# Track frame offsets:
#	150
#	21056
#	39411
#	59074
#	81191
#	102737
#	124190
#	142728
#	158718
#	180581
#	196991
#	213911
#	232287
#	254043
#	276684
#	300712
#	324788
#	348028
#
# Disc length: 5007 seconds
#
# Revision: 1
# Processed by: cddbd v1.5.2PL0 Copyright (c) Steve Scherf et al.
# Submitted via: audiograbber 1.83.01
#
DISCID=0a138d12
DTITLE=Boney M - The Collection
DYEAR=2008
DGENRE=
TTITLE0=Ma Baker
TTITLE1=Sunny
TTITLE2=Rivers Of Babylon
TTITLE3=Let It All Be Music
TTITLE4=Love For Sale
TTITLE5=Rasputin
TTITLE6=Ribbons Of Blue
TTITLE7=A Woman Can Change A Man
TTITLE8=Bye Bye Bluebird
TTITLE9=Bahama Mama
TTITLE10=New York City
TTITLE11=Brown Girl In The Ring
TTITLE12=Take The Heat Off Me
TTITLE13=No Woman No Cry
TTITLE14=Daddy Cool (Anniversary Recording 86)
TTITLE15=Children Of Paradise
TTITLE16=Gotta Go Home
TTITLE17=I See A Boat On The River
EXTD=
EXTT0=
EXTT1=
EXTT2=
EXTT3=
EXTT4=
EXTT5=
EXTT6=
EXTT7=
EXTT8=
EXTT9=
EXTT10=
EXTT11=
EXTT12=
EXTT13=
EXTT14=
EXTT15=
EXTT16=
EXTT17=
PLAYORDER=
